<!DOCTYPE svg PUBLIC "-//W3C//DTD SVG 1.1//EN" "http://www.w3.org/Graphics/SVG/1.1/DTD/svg11.dtd">

<!-- Uploaded to: SVG Repo, www.svgrepo.com, Transformed by: SVG Repo Mixer Tools -->
<svg fill="#ffffff" height="18px" width="18px" version="1.1" id="Layer_1" xmlns="http://www.w3.org/2000/svg" xmlns:xlink="http://www.w3.org/1999/xlink" viewBox="0 0 512 512" xml:space="preserve">

<g id="SVGRepo_bgCarrier" stroke-width="0"/>

<g id="SVGRepo_tracerCarrier" stroke-linecap="round" stroke-linejoin="round"/>

<g id="SVGRepo_iconCarrier"> <g> <g> <path d="M403.5,163.765l-73.363-73.412h25.958c5.544,0,10.336-4.102,10.336-9.646V10.432C366.431,4.889,361.64,0,356.096,0 H155.311c-5.544,0-9.743,4.889-9.743,10.432v70.275c0,5.544,4.199,9.646,9.743,9.646h25.958l-73.066,73.412 c-1.882,1.882-2.792,4.632-2.792,7.295v331.294c0,5.544,4.199,9.646,9.743,9.646h281.098c5.544,0,10.336-4.102,10.336-9.646 V381.883V241.334V171.06C406.588,168.397,405.382,165.647,403.5,163.765z M165.647,70.275V20.078h180.706v50.196h-40.454H205.507 H165.647z M386.51,371.451H245.961V250.98H386.51V371.451z M386.51,230.902H235.625c-5.544,0-9.743,4.889-9.743,10.432v140.549 c0,5.544,4.199,9.646,9.743,9.646H386.51v100.392H125.49v0V175.218l84.175-84.865h92.076l84.768,84.865V230.902z"/> </g> </g> <g> <g> <polygon points="326.275,301.176 326.275,271.059 306.196,271.059 306.196,301.176 276.078,301.176 276.078,321.255 306.196,321.255 306.196,351.373 326.275,351.373 326.275,321.255 356.392,321.255 356.392,301.176 "/> </g> </g> </g>

</svg>